<?xml version="1.0" ?><svg style="enable-background:new 0 0 48 48;" version="1.1" viewBox="0 0 48 48" xml:space="preserve" xmlns="http://www.w3.org/2000/svg" xmlns:xlink="http://www.w3.org/1999/xlink"><g id="Padding__x26__Artboard"/><g id="Icons"><g><path d="M23.99976,14.22217c-5.3916,0-9.77783,4.38672-9.77783,9.77832s4.38623,9.77734,9.77783,9.77734    s9.77832-4.38574,9.77832-9.77734S29.39136,14.22217,23.99976,14.22217z M28.30298,24.3501h-3.95312v3.95312    c0,0.19336-0.15674,0.34961-0.3501,0.34961s-0.3501-0.15625-0.3501-0.34961V24.3501h-3.95264    c-0.19336,0-0.3501-0.15625-0.3501-0.34961s0.15674-0.34961,0.3501-0.34961h3.95264v-3.9541    c0-0.19336,0.15674-0.34961,0.3501-0.34961s0.3501,0.15625,0.3501,0.34961v3.9541h3.95312    c0.19336,0,0.3501,0.15625,0.3501,0.34961S28.49634,24.3501,28.30298,24.3501z" style="fill:#303030;"/></g></g></svg>